<?xml version="1.0" encoding="utf-8"?>
<!-- Generator: Adobe Illustrator 21.1.0, SVG Export Plug-In . SVG Version: 6.00 Build 0)  -->
<svg version="1.1" id="Layer_1" xmlns="http://www.w3.org/2000/svg" xmlns:xlink="http://www.w3.org/1999/xlink" x="0px" y="0px"
	 viewBox="0 0 1000 1000" style="enable-background:new 0 0 1000 1000;" xml:space="preserve">
<style type="text/css">
	.st0{enable-background:new    ;}
	.st1{fill:#FFFFFF;}
	.st2{fill:none;stroke:#FFFFFF;stroke-width:15;}
</style>
<title>Letterhead_01</title>
<desc>Created with Sketch.</desc>
<g id="Letterhead">
	<g id="Letterhead_01">
		<g class="st0">
			<path class="st1" d="M248,562.7c1.9,0,3.6,0.7,4.9,2.1c1.3,1.4,2,3.1,2,5c0,1.9-0.7,3.6-2.1,5.1c-5.7,4.9-12,8.6-19,11.2
				c-7,2.6-14.3,3.9-22,3.9c-17.4,0-32.2-6.1-44.5-18.4c-12.3-12.3-18.4-27.1-18.4-44.5c0-17.4,6.1-32.2,18.4-44.5
				c12.3-12.3,27.1-18.4,44.5-18.4c7.7,0,15.1,1.3,22.1,3.9c7,2.6,13.3,6.4,18.9,11.2c0.7,0.7,1.3,1.5,1.7,2.5c0.5,1,0.7,2,0.7,3
				c0,1.9-0.7,3.6-2,4.9s-3,2-4.9,2c-1.8,0-3.3-0.6-4.5-1.7c-9.1-8-19.8-12-32-12c-13.5,0-25,4.8-34.6,14.4
				c-9.5,9.5-14.3,21-14.3,34.6c0,13.6,4.8,25.1,14.3,34.6c9.6,9.6,21.1,14.4,34.6,14.4c5.9,0,11.6-1.1,17.1-3.3
				c5.5-2.2,10.5-5.1,14.9-8.8C245,563.2,246.4,562.7,248,562.7z"/>
			<path class="st1" d="M373.5,562.9c1.9,0,3.6,0.7,4.9,2.1c1.3,1.4,2,3.1,2,5c0,1.9-0.6,3.6-1.8,4.8c-11.7,10.1-25.3,15.2-41,15.2
				c-17.4,0-32.2-6.1-44.5-18.4c-12.3-12.3-18.4-27.1-18.4-44.5c0-17.4,6.1-32.2,18.4-44.5c12.3-12.3,27.1-18.4,44.5-18.4
				c17.4,0,32.2,6.1,44.5,18.4c12.3,12.3,18.4,27.1,18.4,44.5c0,1.9-0.7,3.6-2,4.9s-3,2-4.9,2H288.9c2.2,11.2,7,20.4,14.2,27.6
				c9.6,9.6,21.1,14.4,34.6,14.4c6.1,0,11.8-1,17.1-3c5.2-2,10-4.8,14.4-8.6C370.4,563.5,371.8,562.9,373.5,562.9z M386.3,520.1
				c-2.1-11.2-6.8-20.4-14-27.6c-9.6-9.6-21.1-14.4-34.6-14.4s-25,4.8-34.6,14.4c-7.2,7.2-11.9,16.4-14.2,27.6H386.3z"/>
			<path class="st1" d="M418.6,471.2c0-1.9,0.7-3.6,2-4.9s3-2,4.9-2c1.9,0,3.6,0.7,4.9,2s2,3,2,4.9v13c13.8-13.3,28.5-20,44.2-20
				c16.2,0,29.9,5.7,41.1,17.1c11.5,11.4,17.2,25.1,17.2,41.2V583c0,1.9-0.7,3.6-2.1,4.9c-1.4,1.3-3.1,2-5,2c-1.9,0-3.6-0.7-4.9-2
				s-2-3-2-4.9v-60.5c0-12.4-4.3-22.8-13-31.2c-8.7-8.8-19.1-13.1-31.2-13.1s-22.6,4.4-31.3,13.1c-8.6,8.5-12.9,18.9-12.9,31.2V583
				c0,1.9-0.7,3.6-2,4.9s-3,2-4.9,2c-1.9,0-3.6-0.7-4.9-2s-2-3-2-4.9V471.2z"/>
			<path class="st1" d="M575,524.9h0.1c-3.4-1.3-6.3-2.5-8.6-3.8c-2.3-1.2-4.1-2.5-5.4-3.9c-5-5.2-7.5-11.2-7.5-18.1
				c0-7,2.6-13.1,7.9-18.5c10.8-10.9,24.9-16.4,42.2-16.4c9.3,0,18,2,26.2,5.9c8.2,3.9,15.5,9.5,22.1,16.7c0.8,1,1.2,2.4,1.2,3.9
				c0,1.9-0.7,3.6-2.1,5c-1.4,1.4-3.1,2.1-5,2.1c-1.9,0-3.3-0.6-4.4-1.8l-3.5-3.5c-9.6-9.6-21.1-14.4-34.6-14.4
				c-13.6,0-24.4,4.3-32.7,13c-2.2,2.6-3.4,5.8-3.4,9.7c0.1,2.2,0.8,4.2,2,5.8c1.2,1.6,3,2.9,5.3,3.7l57.4,19h-0.1
				c3.4,1.3,6.3,2.5,8.6,3.8c2.3,1.2,4.1,2.5,5.3,3.9c5.1,5.1,7.6,11.1,7.6,18.1c0,7-2.7,13.2-8,18.5C635,584.5,621,590,603.6,590
				c-18.8,0-34.9-7.5-48.3-22.5c-0.8-1.1-1.2-2.5-1.2-4c0-1.9,0.7-3.6,2-5c1.3-1.4,3-2.1,4.9-2.1c1.8,0,3.3,0.6,4.5,1.8l3.5,3.5
				c9.6,9.6,21.1,14.4,34.6,14.4s24.3-4.3,32.5-12.9c2.3-2.6,3.5-5.8,3.5-9.7c-0.4-4.8-2.8-8-7.3-9.7L575,524.9z"/>
			<path class="st1" d="M698.7,433.9c0,2.6-0.9,4.8-2.7,6.6s-4,2.7-6.6,2.7c-2.5,0-4.7-0.9-6.6-2.7c-1.8-1.8-2.8-4-2.8-6.6
				c0-2.5,0.9-4.7,2.8-6.6c1.8-1.8,4-2.8,6.6-2.8c2.6,0,4.8,0.9,6.6,2.8C697.8,429.2,698.7,431.4,698.7,433.9z M682.4,471.2
				c0-1.9,0.7-3.6,2-4.9s3-2,4.9-2c1.9,0,3.6,0.7,5,2c1.4,1.3,2.1,3,2.1,4.9V583c0,1.9-0.7,3.6-2.1,4.9c-1.4,1.3-3.1,2-5,2
				c-1.9,0-3.6-0.7-4.9-2s-2-3-2-4.9V471.2z"/>
			<path class="st1" d="M852,527.1c0,17.4-6.1,32.2-18.4,44.5c-12.3,12.3-27.1,18.4-44.5,18.4c-17.4,0-32.2-6.1-44.5-18.4
				c-12.3-12.3-18.4-27.1-18.4-44.5c0-17.4,6.1-32.2,18.4-44.5c12.3-12.3,27.1-18.4,44.5-18.4c17.4,0,32.2,6.1,44.5,18.4
				C845.9,494.9,852,509.7,852,527.1z M789.1,478.1c-13.5,0-25,4.8-34.6,14.4c-9.6,9.6-14.4,21.1-14.4,34.6s4.8,25,14.4,34.6
				c9.6,9.6,21.1,14.4,34.6,14.4s25-4.8,34.6-14.4c9.5-9.5,14.3-21,14.3-34.6c0-13.5-4.8-25.1-14.3-34.6
				C814.1,482.9,802.6,478.1,789.1,478.1z"/>
		</g>
		<path id="Mask" class="st2" d="M688.5,359l-3-3c-10.6-10.6-27.9-10.6-38.5,0c-10.6,10.6-10.6,27.9,0,38.5l41.5,41.5l0,0l0,0
			l41.5-41.5c10.6-10.6,10.6-27.9,0-38.5c-10.6-10.6-27.9-10.6-38.5,0L688.5,359z"/>
	</g>
</g>
</svg>
